<?xml version="1.0" encoding="UTF-8"?><svg id="Camada_2" xmlns="http://www.w3.org/2000/svg" viewBox="0 0 179.63 177.4"><defs><style>.cls-1{fill:#1d1d1b;}.cls-2{fill:none;stroke:#1d1d1b;stroke-miterlimit:10;stroke-width:7px;}</style></defs><g id="Camada_2-2"><path class="cls-1" d="m79,26.4c39.7,0,72,32.3,72,72s-32.3,72-72,72H7V26.4h72m0-7H0v158h79c43.63,0,79-35.37,79-79h0c0-43.63-35.37-79-79-79h0Z"/><path class="cls-1" d="m39.74,27.17c17.63,0,31.98,14.34,31.98,31.98s-14.34,31.98-31.98,31.98-31.98-14.34-31.98-31.98,14.34-31.98,31.98-31.98m0-7.77C17.79,19.4,0,37.19,0,59.14s17.79,39.74,39.74,39.74,39.74-17.79,39.74-39.74S61.69,19.4,39.74,19.4h0Z"/><path class="cls-2" d="m167.52,113.48c5.37,6.26,8.61,14.4,8.61,23.3,0,19.78-16.04,35.82-35.82,35.82s-35.82-16.04-35.82-35.82,16.04-35.82,35.82-35.82c5.55,0,10.8,1.26,15.49,3.51"/><line class="cls-2" x1="35.82" y1="120.65" x2="35.82" y2="176.61"/><line class="cls-2" x1="90.6" y1="117.44" x2="32.32" y2="117.44"/><polyline class="cls-2" points="86.36 56.67 112.45 80.01 138.87 56.67"/><line class="cls-2" x1="0" y1="3.5" x2="68.67" y2="3.5"/></g></svg>